HIERARCHY
ROOT Hips
{
	OFFSET 0.000000 0.000000 0.000000 
	CHANNELS 6 Xposition Yposition Zposition Yrotation Zrotation Xrotation 
	JOINT Lumbar
	{
		OFFSET 0.000000 0.000000 0.000000 
		CHANNELS 3 Zrotation Xrotation Yrotation
		JOINT Neck
		{
			OFFSET 0.000000 0.445665 0.000000 
			CHANNELS 3 Zrotation Xrotation Yrotation
			End Site
			{
				OFFSET 0.000000 0.227535 0.000000 
			}
		}
		JOINT RightShoulder
		{
			OFFSET 0.019635 0.377685 0.194865 
			CHANNELS 3 Zrotation Xrotation Yrotation
			JOINT RightElbow
			{
				OFFSET 0.000000 -0.243375 0.000000 
				CHANNELS 2 Zrotation Yrotation
				JOINT RightWrist
				{
					OFFSET 0.000000 -0.264825 0.000000 
					CHANNELS 2 Zrotation Xrotation
					End Site
					{
						OFFSET 0.006600 -0.176220 0.000990 
					}
				}
			}
		}
		JOINT LeftShoulder
		{
			OFFSET 0.019635 0.377685 -0.194865 
			CHANNELS 3 Zrotation Xrotation Yrotation
			JOINT LeftElbow
			{
				OFFSET 0.000000 -0.243375 0.000000 
				CHANNELS 2 Zrotation Yrotation
				JOINT LeftWrist
				{
					OFFSET 0.000000 -0.264825 0.000000 
					CHANNELS 2 Zrotation Xrotation
					End Site
					{
						OFFSET 0.006600 -0.176220 -0.000990 
					}
				}
			}
		}
	}
	JOINT RightHip
	{
		OFFSET 0.052140 -0.069960 0.075570 
		CHANNELS 3 Zrotation Xrotation Yrotation
		JOINT RightKnee
		{
			OFFSET 0.000000 -0.402270 0.000000 
			CHANNELS 1 Zrotation
			JOINT RightAnkle
			{
				OFFSET 0.000000 -0.404085 0.000000 
				CHANNELS 3 Zrotation Xrotation Yrotation
				End Site
				{
					OFFSET 0.204105 -0.089430 0.008415 
				}
			}
		}
	}
	JOINT LeftHip
	{
		OFFSET 0.052140 -0.069960 -0.075570 
		CHANNELS 3 Zrotation Xrotation Yrotation
		JOINT LeftKnee
		{
			OFFSET 0.000000 -0.402270 0.000000 
			CHANNELS 1 Zrotation
			JOINT LeftAnkle
			{
				OFFSET 0.000000 -0.404085 0.000000 
				CHANNELS 3 Zrotation Xrotation Yrotation
				End Site
				{
					OFFSET 0.204105 -0.089430 -0.008415 
				}
			}
		}
	}
}
MOTION
Frames: 17
Frame Time: 0.02
0 0.95578 0 182.08238 0 -3.15356 1.34488 2.48539 -6.51807 -37.42714 4.46614 4.77799 -9.24941 -72.39773 -79.66293 21.11286 75.94336 -18.07358 -1.84002 -2.89436 62.82186 74.72053 23.43823 -70.4078 -27.12144 1.77347 -1.48604 3.62198 5.63503 -7.81215 -1.72053 -2.86084 -6.6474 0.17161 4.51027 1.94587 -8.74315 5.95714 1.50804 0.05779
0 0.95577 -5e-05 182.06805 0 -3.15334 1.33701 2.49479 -6.51035 -37.48295 4.44508 4.76609 -9.23243 -72.33087 -79.74884 21.12454 76.0699 -17.99027 -1.87169 -2.95869 62.83263 74.80623 23.46502 -70.45691 -27.13819 1.7209 -1.47673 3.62428 5.64652 -7.82544 -1.71261 -2.85803 -6.64464 0.1718 4.51105 1.93296 -8.74903 5.96415 1.51545 0.0811
1e-05 0.95577 -9e-05 182.05361 0 -3.15312 1.32918 2.50418 -6.50257 -37.53843 4.42406 4.75431 -9.21559 -72.26416 -79.83405 21.13612 76.19552 -17.90751 -1.90318 -3.02283 62.84342 74.89187 23.4916 -70.50567 -27.15481 1.66864 -1.46745 3.62656 5.65793 -7.83868 -1.70473 -2.85523 -6.64174 0.17188 4.51183 1.92034 -8.75478 5.9711 1.52285 0.10423
1e-05 0.95576 -0.00014 182.03861 0 -3.15293 1.32144 2.51359 -6.49451 -37.59328 4.40312 4.74292 -9.19906 -72.19773 -79.91733 21.14752 76.31818 -17.82622 -1.93424 -3.08662 62.85409 74.9781 23.51746 -70.55385 -27.17107 1.61696 -1.45821 3.6288 5.66914 -7.85182 -1.69699 -2.85247 -6.63824 0.17163 4.51264 1.90874 -8.76022 5.97791 1.53019 0.12677
2e-05 0.95575 -0.00019 182.02661 0 -3.15262 1.31324 2.52287 -6.488 -37.65169 4.38184 4.72949 -9.18081 -72.1302 -80.01093 21.16002 76.4559 -17.73724 -1.96755 -3.15202 62.86505 75.06119 23.547 -70.60549 -27.18919 1.56207 -1.44875 3.63131 5.68142 -7.86544 -1.68858 -2.84953 -6.63795 0.17327 4.51332 1.89175 -8.76749 5.98549 1.53776 0.15231
1e-05 0.95574 -0.00023 182.00824 0 -3.15256 1.30601 2.53244 -6.47817 -37.70236 4.36125 4.72038 -9.16626 -72.06482 -80.08254 21.17009 76.56207 -17.66454 -1.99607 -3.21409 62.87559 75.15087 23.56881 -70.6495 -27.20338 1.51411 -1.43978 3.63321 5.69139 -7.87806 -1.68154 -2.84696 -6.63083 0.17082 4.51424 1.88616 -8.77077 5.99143 1.54486 0.17159
-4e-05 0.95574 -0.00026 181.97134 0 -3.15326 1.30137 2.54266 -6.45917 -37.73353 4.34269 4.72359 -9.16122 -72.0059 -80.09343 21.17435 76.57725 -17.63724 -2.01146 -3.26715 62.88351 75.26165 23.56827 -70.67511 -27.20653 1.48375 -1.43186 3.63352 5.69473 -7.88797 -1.67854 -2.84533 -6.60394 0.15728 4.51604 1.91313 -8.76342 5.99275 1.55072 0.17266
-0.00011 0.95574 -0.00028 181.92813 0 -3.15417 1.29771 2.55316 -6.43686 -37.75659 4.32479 4.73114 -9.15991 -71.94907 -80.08203 21.17602 76.56131 -17.62629 -2.02198 -3.31686 62.89124 75.37863 23.56008 -70.69258 -27.20575 1.46064 -1.42444 3.63314 5.69541 -7.89696 -1.67679 -2.84403 -6.56994 0.13952 4.51798 1.95128 -8.75187 5.99242 1.55616 0.16772
-0.00018 0.95574 -0.0003 181.88836 0 -3.15497 1.29361 2.56367 -6.41602 -37.78218 4.30645 4.73647 -9.15751 -71.8908 -80.08096 21.17827 76.56209 -17.60754 -2.03473 -3.36807 62.90008 75.49108 23.55604 -70.71199 -27.2069 1.43515 -1.41705 3.63306 5.69795 -7.90621 -1.67437 -2.84268 -6.54022 0.12361 4.51977 1.98392 -8.74208 5.99293 1.5617 0.16594
-0.00024 0.95575 -0.00033 181.84617 0 -3.15593 1.28944 2.57373 -6.39517 -37.81262 4.28865 4.74279 -9.15305 -71.83436 -80.07945 21.18295 76.5519 -17.5903 -2.04753 -3.41944 62.90477 75.61092 23.54922 -70.73864 -27.20745 1.40573 -1.40878 3.63325 5.69929 -7.91573 -1.67269 -2.84113 -6.50756 0.10816 4.52214 2.0191 -8.73329 5.99311 1.56739 0.16177
-0.00032 0.95575 -0.00035 181.80753 0 -3.15646 1.28572 2.58464 -6.37375 -37.83108 4.26996 4.74816 -9.15313 -71.77493 -80.07307 21.18208 76.55727 -17.57385 -2.05889 -3.4696 62.91785 75.71661 23.54628 -70.74853 -27.2083 1.38628 -1.4022 3.63243 5.70056 -7.92497 -1.6694 -2.83981 -6.47746 0.09051 4.52308 2.05073 -8.72094 5.99351 1.57295 0.16188
-0.00043 0.95575 -0.00032 181.78028 0 -3.15703 1.28233 2.59923 -6.34998 -37.81796 4.248 4.74907 -9.17049 -71.70373 -80.06297 21.16532 76.61211 -17.5552 -2.06922 -3.51783 62.95583 75.78352 23.55667 -70.71229 -27.21104 1.39203 -1.40243 3.63157 5.72025 -7.929 -1.66472 -2.8413 -6.47342 0.07021 4.52224 2.07812 -8.70425 5.99558 1.57557 0.16841
-0.00056 0.95574 -0.00029 181.75685 0 -3.15696 1.27947 2.61445 -6.32604 -37.79311 4.22525 4.749 -9.1913 -71.62999 -80.04795 21.14332 76.68367 -17.53687 -2.078 -3.56477 63.00191 75.83553 23.57109 -70.66004 -27.21421 1.40765 -1.40404 3.62936 5.73748 -7.93342 -1.65791 -2.84269 -6.46982 0.04753 4.51964 2.10039 -8.68353 5.99783 1.57843 0.18034
-0.00069 0.95574 -0.00025 181.73162 0 -3.15623 1.27683 2.62839 -6.30325 -37.77403 4.20325 4.74992 -9.20673 -71.55939 -80.03238 21.12443 76.74864 -17.51862 -2.08626 -3.612 63.0432 75.8933 23.58316 -70.616 -27.2171 1.41907 -1.40335 3.62594 5.74299 -7.94102 -1.64965 -2.84252 -6.45366 0.0242 4.51629 2.11904 -8.66141 5.99952 1.58311 0.19478
-0.00081 0.95574 -0.00022 181.70634 0 -3.15926 1.27234 2.64631 -6.27588 -37.75302 4.17954 4.7488 -9.23811 -71.48055 -80.02776 21.10219 76.80926 -17.49989 -2.09929 -3.66069 63.0893 75.95596 23.59716 -70.56673 -27.22017 1.42949 -1.4092 3.62971 5.79912 -7.93537 -1.65098 -2.84875 -6.48601 0.00748 4.51909 2.16153 -8.65177 6.00303 1.58016 0.18962
-0.00094 0.95573 -0.00018 181.68229 0 -3.15464 1.27177 2.65639 -6.258 -37.73309 4.15929 4.75152 -9.23737 -71.41817 -79.99951 21.08592 76.88206 -17.48217 -2.10235 -3.7057 63.12717 76.00429 23.60821 -70.52593 -27.22307 1.4443 -1.40242 3.61879 5.75364 -7.95622 -1.63262 -2.8421 -6.42182 -0.02283 4.50916 2.15509 -8.61652 6.00299 1.59248 0.22469
-0.00113 0.95574 -0.0001 181.65942 0 -3.12632 1.28227 2.64191 -6.26688 -37.72139 4.14789 4.76594 -9.14411 -71.40259 -79.90668 21.08583 76.99566 -17.46584 -2.0759 -3.74411 63.14144 76.02117 23.61006 -70.50186 -27.22501 1.46838 -1.35464 3.56248 5.38979 -8.06085 -1.55339 -2.79593 -6.05328 -0.09594 4.46005 1.99646 -8.50039 5.99164 1.65304 0.38657
